<?xml version="1.0" encoding="UTF-8" ?>
<!DOCTYPE svg PUBLIC "-//W3C//DTD SVG 1.1//EN" "http://www.w3.org/Graphics/SVG/1.1/DTD/svg11.dtd">
<svg width="95pt" height="156pt" viewBox="0 0 95 156" version="1.1" xmlns="http://www.w3.org/2000/svg">
<g id="#ffffffff">
</g>
<g id="#b2804bff">
<path fill="#b2804b" opacity="1.00" d=" M 56.38 0.00 L 57.05 0.00 C 59.80 4.89 61.10 10.46 64.01 15.27 C 61.63 22.12 54.88 26.12 48.43 28.50 C 46.02 29.57 43.49 28.74 41.24 27.70 C 38.86 22.82 34.59 19.31 30.78 15.59 C 35.63 17.55 40.73 18.85 45.92 19.53 C 45.15 13.46 43.52 7.56 41.50 1.80 C 46.37 5.97 51.29 10.09 56.07 14.36 C 56.40 9.58 56.36 4.79 56.38 0.00 Z" />
</g>
<g id="#f9cdc8ff">
<path fill="#f9cdc8" opacity="1.00" d=" M 64.01 15.27 C 67.11 15.78 70.40 16.17 73.03 18.04 C 75.91 20.09 78.21 22.83 80.53 25.48 C 77.66 28.29 72.47 29.46 72.04 34.06 C 71.43 36.93 71.22 39.86 71.00 42.78 C 67.48 44.36 64.07 46.37 60.22 47.01 C 56.21 47.66 52.14 47.18 48.11 47.08 C 48.37 55.82 49.78 64.64 53.20 72.74 C 57.79 82.68 64.30 91.55 70.24 100.71 C 74.85 108.51 79.64 116.72 80.24 125.98 C 81.24 136.24 76.94 147.33 67.86 152.75 C 62.41 155.71 55.71 155.56 49.87 153.93 C 41.93 151.29 37.02 144.07 32.03 137.83 C 27.18 141.85 22.20 145.87 16.33 148.30 C 11.17 150.79 5.52 151.85 0.00 153.20 L 0.00 126.54 C 2.84 124.75 5.82 123.09 8.17 120.64 C 5.17 121.79 2.52 123.63 0.00 125.58 L 0.00 113.74 C 3.38 111.71 7.12 110.05 9.66 106.90 C 6.32 108.52 3.25 110.63 0.00 112.42 L 0.00 83.89 C 5.32 85.97 10.92 87.40 15.96 90.14 C 23.72 94.29 30.56 100.76 33.79 109.07 C 37.48 118.24 39.53 128.32 45.67 136.31 C 48.95 140.72 54.17 144.17 59.84 143.91 C 64.37 143.47 67.70 139.31 68.13 134.93 C 69.20 126.06 67.67 116.72 63.13 108.95 C 54.67 94.01 42.92 80.52 38.52 63.59 C 35.76 51.83 35.28 38.58 41.24 27.70 C 43.49 28.74 46.02 29.57 48.43 28.50 C 54.88 26.12 61.63 22.12 64.01 15.27 M 62.34 33.63 C 63.39 33.64 64.43 33.60 65.47 33.53 C 65.91 31.38 66.46 28.56 63.98 27.41 C 60.89 27.40 61.07 31.73 62.34 33.63 Z" />
</g>
<g id="#ebedecff">
<path fill="#ebedec" opacity="1.00" d=" M 80.53 25.48 C 84.23 30.10 88.44 34.27 93.00 38.04 C 89.84 39.43 86.39 39.90 83.19 41.17 C 81.36 41.75 81.19 43.85 80.55 45.37 C 78.13 42.70 74.35 42.58 71.00 42.78 C 71.22 39.86 71.43 36.93 72.04 34.06 C 72.47 29.46 77.66 28.29 80.53 25.48 Z" />
</g>
<g id="#020101ff">
<path fill="#020101" opacity="1.00" d=" M 62.34 33.63 C 61.07 31.73 60.89 27.40 63.98 27.41 C 66.46 28.56 65.91 31.38 65.47 33.53 C 64.43 33.60 63.39 33.64 62.34 33.63 M 63.31 29.21 C 63.95 29.85 63.95 29.85 63.31 29.21 Z" />
<path fill="#020101" opacity="1.00" d=" M 0.00 112.42 C 3.25 110.63 6.32 108.52 9.66 106.90 C 7.12 110.05 3.38 111.71 0.00 113.74 L 0.00 112.42 Z" />
<path fill="#020101" opacity="1.00" d=" M 0.00 125.58 C 2.52 123.63 5.17 121.79 8.17 120.64 C 5.82 123.09 2.84 124.75 0.00 126.54 L 0.00 125.58 Z" />
</g>
<g id="#d7d9d8ff">
<path fill="#d7d9d8" opacity="1.00" d=" M 63.31 29.21 C 63.95 29.85 63.95 29.85 63.31 29.21 Z" />
</g>
<g id="#000000ff">
<path fill="#000000" opacity="1.00" d=" M 83.19 41.17 C 86.39 39.90 89.84 39.43 93.00 38.04 C 94.81 40.98 94.72 44.55 94.19 47.84 C 93.13 52.62 91.93 57.84 87.86 61.02 C 84.43 56.30 83.98 50.12 80.55 45.37 C 81.19 43.85 81.36 41.75 83.19 41.17 Z" />
</g>
</svg>
