<?xml version="1.0" encoding="UTF-8" ?>
<!DOCTYPE svg PUBLIC "-//W3C//DTD SVG 1.1//EN" "http://www.w3.org/Graphics/SVG/1.1/DTD/svg11.dtd">
<svg width="97pt" height="152pt" viewBox="0 0 97 152" version="1.1" xmlns="http://www.w3.org/2000/svg">
<g id="#ffffffff">
<path fill="#ffffff" opacity="1.00" d=" M 29.18 12.18 C 29.84 12.84 29.84 12.84 29.18 12.18 Z" />
</g>
<g id="#f9cdc8ff">
<path fill="#f9cdc8" opacity="1.00" d=" M 33.49 0.00 L 38.54 0.00 C 46.14 2.60 53.71 7.14 57.20 14.69 C 62.48 25.04 61.75 36.97 61.07 48.20 C 57.32 50.44 53.95 53.36 49.90 55.10 C 48.80 54.92 47.72 54.65 46.67 54.28 C 47.65 47.87 48.99 41.51 49.19 35.01 C 40.01 35.38 30.00 33.10 23.94 25.67 C 24.01 22.32 24.43 18.84 23.42 15.58 C 21.65 13.43 18.95 12.36 16.63 10.91 C 21.26 5.92 26.96 2.02 33.49 0.00 M 28.23 14.81 C 29.52 14.98 30.81 15.13 32.10 15.26 C 32.10 13.56 32.48 10.26 30.00 10.21 C 27.55 10.07 28.61 13.32 28.23 14.81 Z" />
<path fill="#f9cdc8" opacity="1.00" d=" M 44.65 59.51 C 46.34 58.69 48.04 57.63 49.97 57.56 C 52.53 58.17 54.85 59.47 57.19 60.64 C 54.47 65.49 52.13 70.55 49.17 75.26 C 43.58 84.56 36.93 93.19 31.57 102.63 C 28.24 108.93 26.64 116.02 25.95 123.07 C 25.37 128.24 26.61 133.94 30.26 137.78 C 36.80 141.76 45.47 138.53 50.17 133.10 C 59.82 121.32 60.79 105.00 69.90 92.91 C 77.33 84.57 86.45 77.50 97.00 73.61 L 97.00 109.12 C 91.97 110.58 86.53 109.85 81.62 111.52 C 86.81 111.92 92.01 111.13 97.00 109.73 L 97.00 143.65 C 86.26 141.68 77.50 134.90 68.97 128.56 C 64.43 133.86 61.36 140.34 56.06 144.98 C 52.48 148.32 47.87 150.18 43.40 152.00 L 32.53 152.00 C 30.73 151.27 28.97 150.47 27.25 149.58 C 19.76 146.05 15.52 138.04 13.86 130.26 C 11.88 121.07 14.50 111.65 18.54 103.39 C 26.11 88.09 38.47 75.55 44.65 59.51 M 88.90 125.26 C 91.15 126.58 93.79 126.84 96.34 126.90 C 94.19 125.37 91.43 125.41 88.90 125.26 Z" />
</g>
<g id="#000000ff">
<path fill="#000000" opacity="1.00" d=" M 28.23 14.81 C 28.61 13.32 27.55 10.07 30.00 10.21 C 32.48 10.26 32.10 13.56 32.10 15.26 C 30.81 15.13 29.52 14.98 28.23 14.81 M 29.18 12.18 C 29.84 12.84 29.84 12.84 29.18 12.18 Z" />
<path fill="#000000" opacity="1.00" d=" M 3.02 19.00 C 5.47 19.86 7.97 20.59 10.34 21.66 C 11.94 22.68 12.66 24.58 13.74 26.08 C 9.84 30.16 7.56 35.35 4.73 40.14 C 2.06 41.38 1.28 37.91 0.95 36.01 C 0.09 30.35 -0.52 23.92 3.02 19.00 Z" />
<path fill="#000000" opacity="1.00" d=" M 81.62 111.52 C 86.53 109.85 91.97 110.58 97.00 109.12 L 97.00 109.73 C 92.01 111.13 86.81 111.92 81.62 111.52 Z" />
<path fill="#000000" opacity="1.00" d=" M 88.90 125.26 C 91.43 125.41 94.19 125.37 96.34 126.90 C 93.79 126.84 91.15 126.58 88.90 125.26 Z" />
</g>
<g id="#ecededff">
<path fill="#eceded" opacity="1.00" d=" M 3.02 19.00 C 7.94 17.01 12.69 14.49 16.63 10.91 C 18.95 12.36 21.65 13.43 23.42 15.58 C 24.43 18.84 24.01 22.32 23.94 25.67 C 20.54 25.14 17.11 25.54 13.74 26.08 C 12.66 24.58 11.94 22.68 10.34 21.66 C 7.97 20.59 5.47 19.86 3.02 19.00 Z" />
</g>
<g id="#b07d44ff">
<path fill="#b07d44" opacity="1.00" d=" M 61.07 48.20 C 62.74 47.30 64.47 46.53 66.20 45.77 C 66.60 52.04 66.69 58.35 66.39 64.63 C 63.22 63.55 60.14 62.24 57.19 60.64 C 54.85 59.47 52.53 58.17 49.97 57.56 C 48.04 57.63 46.34 58.69 44.65 59.51 C 40.94 61.66 37.23 63.81 33.47 65.87 C 33.55 59.57 33.45 53.27 33.44 46.97 C 38.12 48.90 42.21 51.93 46.67 54.28 C 47.72 54.65 48.80 54.92 49.90 55.10 C 53.95 53.36 57.32 50.44 61.07 48.20 Z" />
</g>
</svg>
